<?xml version="1.0" encoding="utf-8"?>
<!-- Generator: Adobe Illustrator 16.0.0, SVG Export Plug-In . SVG Version: 6.00 Build 0)  -->
<!DOCTYPE svg PUBLIC "-//W3C//DTD SVG 1.1//EN" "http://www.w3.org/Graphics/SVG/1.1/DTD/svg11.dtd">
<svg version="1.1" id="Layer_1" xmlns="http://www.w3.org/2000/svg" xmlns:xlink="http://www.w3.org/1999/xlink" x="0px" y="0px"
	 width="225px" height="112.5px" viewBox="0 0 225 112.5" enable-background="new 0 0 225 112.5" xml:space="preserve">
<desc>Created by EvoPdf</desc>
<g transform="matrix(1,0,0,1,0,0)">
</g>
<g transform="matrix(1,0,0,1,0,0)">
</g>
<g transform="matrix(1,0,0,1,0,0)">
</g>
<g transform="matrix(1,0,0,1,0,0)">
</g>
<g transform="matrix(0.5,0,0,0.5,75,8)">
</g>
<g transform="matrix(0.5,0,0,0.5,75,8)">
</g>
<g transform="matrix(2.41175,0,0,2.41175,93.5529,62.8136)">
</g>
<g transform="matrix(2.41175,0,0,2.41175,93.5529,62.8136)">
	
		<linearGradient id="SVGID_1_" gradientUnits="userSpaceOnUse" x1="-40.645" y1="37.8117" x2="-38.8268" y2="37.8117" gradientTransform="matrix(2.4118 0 0 -2.4118 63.1191 88.3667)">
		<stop  offset="9.999999e-008" style="stop-color:#000000"/>
		<stop  offset="1" style="stop-color:#000000"/>
	</linearGradient>
	<path vector-effect="none" fill="url(#SVGID_1_)" d="M-33.36,5.174c-0.146,0-0.255-0.054-0.327-0.163
		c-0.085-0.109-0.128-0.243-0.128-0.4c0.024-0.255,0.079-0.406,0.163-0.454c0.085-0.049,0.243-0.073,0.473-0.073
		c0.497,0,0.86-0.091,1.09-0.273c0.243-0.182,0.394-0.4,0.455-0.654c0.061-0.267,0.097-0.612,0.109-1.036v-10.11
		c-0.012-0.424-0.048-0.77-0.109-1.037c-0.061-0.254-0.212-0.473-0.455-0.654c-0.23-0.183-0.594-0.273-1.09-0.273h-0.146
		c-0.17,0-0.291-0.03-0.363-0.091c-0.061-0.061-0.103-0.206-0.128-0.437c0-0.158,0.043-0.291,0.128-0.4
		c0.072-0.109,0.181-0.164,0.327-0.164c1.103,0.049,2.109,0.073,3.018,0.073c1.018,0,2.078-0.024,3.182-0.073
		c0.145,0,0.26,0.055,0.345,0.164c0.073,0.109,0.109,0.242,0.109,0.4c-0.024,0.254-0.079,0.406-0.164,0.454
		c-0.085,0.049-0.243,0.073-0.473,0.073c-0.497,0-0.86,0.09-1.091,0.273c-0.242,0.181-0.394,0.4-0.455,0.654
		c-0.06,0.267-0.097,0.612-0.109,1.037v4.509h7.982v-4.509c-0.012-0.424-0.048-0.77-0.109-1.037
		c-0.061-0.254-0.206-0.473-0.436-0.654c-0.243-0.183-0.612-0.273-1.109-0.273h-0.146c-0.169,0-0.291-0.03-0.363-0.091
		c-0.085-0.061-0.134-0.206-0.146-0.437c0-0.158,0.043-0.291,0.128-0.4c0.085-0.109,0.194-0.164,0.327-0.164
		c1.103,0.049,2.164,0.073,3.182,0.073c0.933,0,1.946-0.024,3.037-0.073c0.145,0,0.26,0.055,0.345,0.164
		c0.074,0.109,0.109,0.242,0.109,0.4c-0.012,0.254-0.066,0.406-0.164,0.454c-0.096,0.049-0.254,0.073-0.473,0.073
		c-0.496,0-0.867,0.09-1.109,0.273c-0.243,0.181-0.395,0.4-0.455,0.654c-0.061,0.267-0.097,0.612-0.109,1.037v10.11
		c0.012,0.424,0.049,0.769,0.109,1.036c0.06,0.255,0.212,0.472,0.455,0.654c0.242,0.182,0.613,0.273,1.109,0.273h0.146
		c0.158,0,0.273,0.031,0.345,0.091c0.085,0.049,0.133,0.194,0.145,0.437c0,0.158-0.035,0.291-0.109,0.4
		c-0.085,0.109-0.2,0.163-0.345,0.163c-1.091-0.049-2.11-0.072-3.056-0.072c-1.005,0-2.06,0.023-3.163,0.072
		c-0.133,0-0.242-0.054-0.327-0.163c-0.085-0.109-0.128-0.243-0.128-0.4c0.012-0.255,0.067-0.406,0.164-0.454
		c0.097-0.049,0.261-0.073,0.491-0.073c0.497,0,0.867-0.091,1.109-0.273c0.23-0.182,0.375-0.4,0.436-0.654
		c0.061-0.267,0.097-0.612,0.109-1.036v-4.51h-7.982v4.51c0.012,0.424,0.049,0.769,0.109,1.036c0.061,0.255,0.213,0.472,0.455,0.654
		c0.23,0.182,0.594,0.273,1.091,0.273h0.146c0.169,0,0.291,0.031,0.364,0.091c0.06,0.049,0.103,0.194,0.127,0.437
		c0,0.158-0.036,0.291-0.109,0.4c-0.085,0.109-0.2,0.163-0.345,0.163c-1.091-0.049-2.146-0.072-3.164-0.072
		C-31.245,5.103-32.257,5.126-33.36,5.174 M-8.16,5.393c-1.152,0-2.176-0.272-3.073-0.818c-0.897-0.558-1.594-1.285-2.092-2.182
		c-0.509-0.909-0.762-1.873-0.762-2.891c0-1.273,0.296-2.382,0.891-3.327c0.593-0.945,1.352-1.667,2.272-2.164
		c0.91-0.497,1.831-0.746,2.764-0.746c1.164,0,2.194,0.273,3.091,0.819c0.896,0.557,1.594,1.291,2.091,2.2
		c0.509,0.897,0.763,1.855,0.763,2.873c0,1.272-0.303,2.381-0.908,3.328C-3.73,3.43-4.488,4.151-5.397,4.648
		C-6.318,5.145-7.239,5.393-8.16,5.393 M-8.16,4.466c1.164,0,2.012-0.497,2.545-1.491c0.533-0.982,0.8-2.255,0.8-3.818
		c0-1.454-0.278-2.643-0.836-3.563c-0.545-0.934-1.381-1.4-2.509-1.4c-1.164,0-2.012,0.484-2.545,1.455
		c-0.522,0.969-0.782,2.236-0.782,3.8c0,1.454,0.273,2.654,0.818,3.6C-10.123,3.993-9.287,4.466-8.16,4.466 M0.094,5.174
		c-0.121,0-0.218-0.054-0.29-0.163C-0.27,4.914-0.305,4.799-0.305,4.666c0.011-0.219,0.054-0.351,0.126-0.399
		c0.085-0.037,0.236-0.055,0.455-0.055c0.436,0,0.751-0.079,0.945-0.237c0.181-0.158,0.291-0.333,0.327-0.528
		c0.036-0.206,0.054-0.533,0.054-0.982v-5.817c0-0.449-0.018-0.77-0.054-0.964C1.525-4.522,1.422-4.704,1.239-4.861
		C1.058-5.007,0.743-5.079,0.294-5.079c-0.207,0-0.358-0.031-0.454-0.091c-0.097-0.06-0.145-0.2-0.145-0.418
		c0-0.109,0.029-0.206,0.089-0.291c0.074-0.097,0.177-0.158,0.309-0.182c1.103-0.169,2.013-0.388,2.728-0.654
		c0.291-0.085,0.485-0.133,0.583-0.145h0.072c0.278,0,0.418,0.158,0.418,0.473v1.6h0.073c0.096-0.097,0.351-0.345,0.764-0.746
		c0.4-0.4,0.86-0.703,1.382-0.908c0.522-0.194,1.109-0.292,1.763-0.292c0.824,0,1.535,0.169,2.127,0.509
		c0.594,0.351,1.031,0.83,1.309,1.436h0.055c0.667-0.619,1.303-1.097,1.91-1.436c0.594-0.34,1.369-0.509,2.327-0.509
		c1.151,0,2.068,0.346,2.746,1.037c0.679,0.691,1.017,1.606,1.017,2.745v5.418c0,0.449,0.019,0.776,0.055,0.982
		c0.024,0.194,0.134,0.37,0.328,0.528c0.181,0.158,0.496,0.237,0.945,0.237h0.145c0.134,0,0.236,0.023,0.309,0.072
		c0.061,0.049,0.103,0.176,0.127,0.382c0,0.134-0.036,0.249-0.109,0.346c-0.086,0.109-0.189,0.163-0.309,0.163
		c-0.982-0.049-1.873-0.072-2.672-0.072c-0.764,0-1.643,0.023-2.637,0.072c-0.133,0-0.236-0.054-0.309-0.163
		c-0.073-0.097-0.109-0.212-0.109-0.346c0.025-0.219,0.073-0.351,0.146-0.399c0.073-0.037,0.224-0.055,0.455-0.055
		c0.436,0,0.745-0.079,0.927-0.237c0.193-0.158,0.309-0.333,0.345-0.528c0.024-0.206,0.037-0.533,0.037-0.982v-5.382
		c0-0.788-0.243-1.387-0.728-1.799c-0.496-0.412-1.067-0.619-1.71-0.619c-0.776,0-1.412,0.182-1.909,0.546
		c-0.496,0.376-0.842,0.775-1.036,1.199v6.055c0,0.109-0.006,0.34-0.019,0.692c-0.012,0.363,0.079,0.63,0.273,0.8
		c0.193,0.169,0.515,0.255,0.964,0.255h0.146c0.157,0,0.266,0.023,0.326,0.072s0.097,0.176,0.109,0.382
		c0,0.134-0.036,0.249-0.109,0.346c-0.061,0.109-0.158,0.163-0.291,0.163c-1.006-0.049-1.872-0.072-2.6-0.072
		c-0.704,0-1.552,0.023-2.546,0.072c-0.133,0-0.236-0.054-0.309-0.163C7.531,4.914,7.494,4.799,7.494,4.666
		C7.518,4.447,7.567,4.315,7.64,4.267C7.712,4.23,7.864,4.212,8.094,4.212c0.557,0,0.903-0.115,1.036-0.346
		c0.134-0.23,0.201-0.497,0.201-0.799C9.319,2.775,9.313,2.575,9.313,2.465v-5.382c0-0.788-0.243-1.387-0.727-1.799
		C8.1-5.128,7.537-5.334,6.894-5.334c-0.788,0-1.425,0.182-1.909,0.546C4.488-4.413,4.131-4.013,3.913-3.589v6.055
		c0,0.449,0.018,0.776,0.054,0.982c0.036,0.194,0.145,0.37,0.328,0.528C4.475,4.133,4.791,4.212,5.24,4.212h0.145
		c0.133,0,0.236,0.023,0.309,0.072C5.767,4.332,5.81,4.46,5.821,4.666c0,0.134-0.036,0.249-0.109,0.346
		c-0.06,0.109-0.158,0.163-0.292,0.163C4.427,5.126,3.536,5.103,2.749,5.103C1.985,5.103,1.1,5.126,0.094,5.174 M22.876,5.174
		c-0.121,0-0.219-0.054-0.292-0.163c-0.073-0.097-0.109-0.212-0.109-0.346c0.011-0.219,0.06-0.351,0.146-0.399
		c0.084-0.037,0.236-0.055,0.454-0.055c0.449,0,0.764-0.079,0.946-0.237c0.182-0.158,0.292-0.333,0.328-0.528
		c0.023-0.206,0.036-0.533,0.036-0.982v-5.817c0-0.449-0.013-0.77-0.036-0.964c-0.036-0.206-0.146-0.388-0.328-0.546
		c-0.181-0.146-0.497-0.218-0.946-0.218c-0.206,0-0.357-0.031-0.454-0.091c-0.097-0.06-0.146-0.2-0.146-0.418
		c0-0.109,0.031-0.206,0.091-0.291c0.073-0.097,0.176-0.158,0.309-0.182c1.103-0.169,2.012-0.388,2.728-0.654
		c0.29-0.085,0.484-0.133,0.581-0.145h0.072c0.279,0,0.419,0.158,0.419,0.473v1.6h0.073c0.484-0.448,0.885-0.8,1.2-1.055
		c0.303-0.242,0.696-0.454,1.181-0.636c0.486-0.169,1.055-0.255,1.71-0.255c1.151,0,2.067,0.346,2.745,1.037
		c0.679,0.691,1.017,1.606,1.017,2.745v5.418c0,0.449,0.019,0.776,0.055,0.982c0.037,0.194,0.146,0.37,0.327,0.528
		c0.194,0.158,0.509,0.237,0.946,0.237h0.164c0.133,0,0.23,0.023,0.29,0.072c0.073,0.049,0.117,0.176,0.129,0.382
		c0,0.134-0.036,0.249-0.109,0.346c-0.073,0.109-0.17,0.163-0.292,0.163c-0.982-0.049-1.872-0.072-2.672-0.072
		c-0.764,0-1.649,0.023-2.655,0.072c-0.109,0-0.206-0.054-0.291-0.163c-0.073-0.097-0.109-0.212-0.109-0.346
		c0.012-0.219,0.061-0.351,0.146-0.399c0.073-0.037,0.217-0.055,0.436-0.055c0.449,0,0.764-0.079,0.946-0.237
		c0.181-0.158,0.291-0.333,0.327-0.528c0.036-0.206,0.055-0.533,0.055-0.982v-5.382c0-0.788-0.249-1.387-0.746-1.799
		c-0.485-0.412-1.049-0.619-1.692-0.619c-0.787,0-1.46,0.188-2.017,0.564c-0.558,0.387-0.939,0.782-1.145,1.181v6.055
		c0,0.449,0.018,0.776,0.054,0.982c0.036,0.194,0.146,0.37,0.327,0.528c0.181,0.158,0.497,0.237,0.946,0.237h0.146
		c0.132,0,0.236,0.023,0.309,0.072c0.072,0.049,0.115,0.176,0.127,0.382c0,0.134-0.036,0.249-0.109,0.346
		c-0.061,0.109-0.158,0.163-0.291,0.163c-0.994-0.049-1.885-0.072-2.673-0.072C24.767,5.103,23.882,5.126,22.876,5.174
		 M41.149,5.393c-1.019,0-1.843-0.284-2.473-0.854c-0.619-0.581-0.928-1.303-0.928-2.163c0-1.067,0.352-1.866,1.055-2.4
		c0.715-0.545,1.564-0.897,2.545-1.054c0.994-0.157,2.268-0.279,3.818-0.363v-2.018c0-0.825-0.207-1.455-0.618-1.891
		c-0.413-0.437-1.079-0.655-2-0.655c-0.522,0-0.976,0.164-1.364,0.491c-0.4,0.315-0.599,0.746-0.599,1.29
		c0,0.279,0.066,0.504,0.199,0.673c0.121,0.182,0.254,0.333,0.4,0.455c0.146,0.121,0.218,0.187,0.218,0.199
		c0,0.097-0.103,0.231-0.309,0.4c-0.219,0.157-0.479,0.237-0.782,0.237c-0.509,0-0.909-0.189-1.199-0.564
		c-0.304-0.375-0.454-0.818-0.454-1.327c0-0.872,0.394-1.521,1.181-1.946c0.789-0.424,1.746-0.636,2.873-0.636
		c1.382,0,2.515,0.261,3.4,0.782c0.873,0.521,1.31,1.497,1.31,2.927v5.928c0.012,0.363,0.121,0.702,0.328,1.018
		c0.206,0.328,0.533,0.491,0.982,0.491c0.145,0,0.248,0.024,0.309,0.073c0.049,0.049,0.073,0.158,0.073,0.327
		c0,0.206-0.151,0.358-0.455,0.455c-0.315,0.084-0.63,0.126-0.945,0.126c-0.642,0-1.206-0.181-1.691-0.545
		c-0.497-0.375-0.781-0.879-0.854-1.509c-0.351,0.667-0.897,1.175-1.637,1.527C42.792,5.218,41.998,5.393,41.149,5.393
		 M41.967,4.029c0.581,0,1.114-0.145,1.6-0.436c0.496-0.292,0.891-0.685,1.182-1.182c0.279-0.496,0.418-1.054,0.418-1.673v-1.454
		c-1.782,0.146-3.037,0.437-3.764,0.873c-0.726,0.437-1.091,1.152-1.091,2.146C40.312,3.453,40.864,4.029,41.967,4.029"/>
</g>
<g transform="matrix(2.41175,0,0,2.41175,93.5529,62.8136)">
</g>
<g transform="matrix(2.41175,0,0,2.41175,93.5529,62.8136)">
</g>
<g transform="matrix(0.5,0,0,0.5,75,8)">
</g>
<g transform="matrix(0.5,0,0,0.5,75,8)">
</g>
<g transform="matrix(1,0,0,1,0,0)">
</g>
<g transform="matrix(1,0,0,1,0,0)">
</g>
<g transform="matrix(1,0,0,1,0,0)">
</g>
<g transform="matrix(1,0,0,1,0,0)">
</g>
<g transform="matrix(0.5,0,0,0.5,75,8)">
</g>
<g transform="matrix(0.5,0,0,0.5,75,8)">
</g>
<g transform="matrix(0.5,0,0,0.5,75,8)">
</g>
<g transform="matrix(1,0,0,1,0,0)">
</g>
<g transform="matrix(1,0,0,1,0,0)">
</g>
<g transform="matrix(1,0,0,1,0,0)">
</g>
<g transform="matrix(1,0,0,1,0,0)">
</g>
<g transform="matrix(1,0,0,1,0,0)">
</g>
<g transform="matrix(1,0,0,1,0,0)">
</g>
</svg>
