<svg xmlns="http://www.w3.org/2000/svg" width="16" height="16" fill="none" viewBox="0 0 16 16">
    <path fill="#C93" d="M8 1c-.06 0-.117.018-.166.051-.049.034-.086.081-.108.136L5.917 5.85l-4.972.254c-.06.003-.117.024-.164.06s-.082.085-.1.142c-.019.056-.02.117-.003.173.016.057.05.108.096.145L4.646 9.79l-1.272 4.804c-.015.057-.012.118.007.174.02.055.056.104.104.139.048.034.105.054.164.056.06.001.118-.015.168-.047l4.182-2.684 4.183 2.684c.05.032.108.048.168.047.059-.002.116-.022.164-.056.048-.035.084-.084.104-.14.02-.055.022-.116.007-.173L11.353 9.79l3.872-3.166c.046-.037.08-.088.096-.145.017-.056.016-.117-.003-.173-.018-.057-.053-.106-.1-.142-.048-.036-.104-.057-.164-.06l-4.973-.254-1.808-4.663c-.022-.055-.06-.102-.108-.136C8.116 1.018 8.06 1.001 8 1zm0 1.104l1.603 4.135c.02.053.056.099.102.132.046.033.1.052.157.055l4.403.225-3.43 2.805c-.043.035-.076.083-.093.136-.017.054-.019.111-.005.166l1.127 4.257-3.706-2.38c-.047-.03-.102-.046-.159-.046-.056 0-.11.016-.158.047l-3.706 2.379L5.26 9.758c.015-.055.013-.112-.004-.166-.018-.053-.05-.1-.093-.136L1.734 6.65l4.403-.225c.056-.003.111-.022.157-.055s.081-.079.102-.132l1.603-4.135z"/>
</svg>
