<?xml version="1.0" encoding="utf-8"?>
<!-- Generator: Adobe Illustrator 16.0.0, SVG Export Plug-In . SVG Version: 6.00 Build 0)  -->
<!DOCTYPE svg PUBLIC "-//W3C//DTD SVG 1.1//EN" "http://www.w3.org/Graphics/SVG/1.1/DTD/svg11.dtd">
<svg version="1.1" id="Layer_1" xmlns="http://www.w3.org/2000/svg" xmlns:xlink="http://www.w3.org/1999/xlink" x="0px" y="0px"
	 width="399.561px" height="397.07px" viewBox="0 0 399.561 397.07" enable-background="new 0 0 399.561 397.07"
	 xml:space="preserve">
<path fill="#D3BA34" d="M264.43,125.213l99.683,14.706c8.254,1.179,15.191,7.006,17.827,14.983
	c2.636,8.047,0.485,16.787-5.48,22.753l-72.281,70.894l17.064,101.694c1.388,8.323-2.012,16.786-8.948,21.712
	c-6.867,4.925-15.955,5.549-23.377,1.596l-89.068-47.518l-88.999,47.518c-7.492,3.953-16.579,3.329-23.446-1.596
	c-6.868-4.926-10.336-13.389-8.88-21.712l17.064-101.694l-72.295-70.894c-5.973-5.966-8.095-14.706-5.473-22.753
	c2.615-7.977,9.53-13.804,17.848-14.983l99.599-14.706l44.673-91.794c3.677-7.642,11.446-12.493,19.909-12.493
	c8.532,0,16.302,4.851,19.978,12.493L264.43,125.213z"/>
</svg>
