<svg xmlns="http://www.w3.org/2000/svg" width="16" height="16" fill="none" viewBox="0 0 16 16">
    <path fill="#C93" d="M3.669 14.963c-.06 0-.118-.03-.176-.059-.088-.059-.147-.205-.118-.323l1.29-4.81L.795 6.632c-.117-.059-.147-.205-.117-.323.029-.117.146-.205.264-.205l4.986-.264 1.79-4.664C7.775 1.088 7.893 1 8.01 1c.117 0 .235.088.264.176l1.79 4.664 4.986.264c.117 0 .235.088.264.205.03.118 0 .235-.088.323l-3.872 3.139 1.29 4.81c.03.118 0 .235-.117.323-.088.059-.234.088-.322 0L8.01 12.205l-4.195 2.699c-.058.059-.088.059-.146.059z"/>
</svg>
